<svg version="1.1" xmlns="http://www.w3.org/2000/svg" viewBox="0 0 513 330" width="513" height="330">
  <!-- svg-source:excalidraw -->
  
  <defs>
    <style>
      @font-face {
        font-family: "Virgil";
        src: url("https://excalidraw.com/Virgil.woff2");
      }
      @font-face {
        font-family: "Cascadia";
        src: url("https://excalidraw.com/Cascadia.woff2");
      }
    </style>
  </defs>
  <rect x="0" y="0" width="513" height="330" fill="#ffffff"></rect><g stroke-linecap="round" transform="translate(11 10) rotate(0 245 119.5)"><path d="M-0.74 0.21 C103.69 0.03, 205.99 0.33, 490.01 0.05 M0.2 -0.33 C133.08 0.31, 265.46 0.66, 490.12 0.28 M488.35 1.55 C491.68 61.98, 492.51 122.86, 488.37 237.96 M489.46 0.64 C489.35 92.68, 490.05 185.7, 490.05 238.72 M489.37 238.91 C303.91 240.12, 115.74 240.28, -0.57 239.45 M489.98 239.16 C295.81 240.83, 102.13 241.22, -0.28 238.7 M0.93 238.3 C-0.66 167.62, 0.55 93.12, -0.13 1.16 M0.62 238.24 C0.06 152.81, 0.16 67.43, -0.27 -0.76" stroke="#000000" stroke-width="1" fill="none"></path></g><g stroke-linecap="round" transform="translate(10 170) rotate(0 246.5 22.5)"><path d="M0 0 C0 0, 0 0, 0 0 M0 0 C0 0, 0 0, 0 0 M-0.02 6.07 C1.54 5.05, 2.99 3.79, 4.21 0.95 M-0.44 6.59 C1.55 4.94, 2.49 2.96, 5.19 0.4 M1.73 11.58 C3.31 10.53, 5.12 6.21, 9.3 0.94 M0.76 12.53 C4.48 7.14, 6.89 2.89, 10.33 -0.39 M-0.2 20.02 C5.25 12.24, 12.51 5.87, 16.19 -0.54 M0.25 18.43 C4.12 13.19, 10.16 8.39, 16.31 -0.11 M-0.87 25.85 C5.19 17.49, 9.14 13.71, 22.49 -1.9 M0.02 23.65 C6.92 14.8, 15.42 7.4, 20.8 -0.56 M0.52 30.41 C7.7 21.26, 12.21 13.35, 28.23 0.46 M0.46 30.35 C7.73 22.24, 14.79 14.49, 26.86 0.6 M-1.92 37.29 C7.21 26.79, 13.59 19.7, 30.03 0.34 M-0.82 37.09 C7.2 28.81, 13.23 20.7, 31.22 0.58 M2.04 41.02 C16.12 26.7, 27.37 12.08, 37.99 0.56 M-0.49 43.44 C10.23 32.56, 19.42 20.03, 36.2 0.54 M1.22 47.64 C16.87 30.94, 28.97 15.3, 41.34 1.49 M1.72 47.21 C14.1 34.89, 23.29 21.49, 43.26 -0.14 M9.43 46.99 C19.63 31.56, 32.2 20.59, 45.64 -0.34 M7.31 46.39 C20.49 32.7, 31.76 19.72, 47 -0.66 M10.73 47.86 C20.79 35.25, 27.38 28.68, 54.48 0.26 M13.11 46.93 C26.45 30.7, 41.38 14.25, 52.74 -0.62 M16.31 46.19 C27.28 34.53, 41.85 19.87, 58.67 -0.21 M18.02 46.63 C32.94 30.3, 47.57 12.49, 58.5 -0.71 M21.72 47.69 C38.55 28.31, 52.05 11.49, 61.9 -1.47 M23.01 46.41 C32.71 35.62, 41.23 24.98, 64.56 -0.6 M29.28 48.64 C41.17 29.76, 56.65 12.15, 69.94 -0.83 M27.5 46.76 C37.98 35.4, 47.75 24.31, 69.5 0.37 M35.16 47.2 C42.96 34.12, 53.89 23.36, 76.36 -0.68 M33.17 45.69 C48.14 30.58, 62.22 12.59, 73.69 -0.65 M40.56 48 C48.79 37.81, 56.73 25.28, 79.65 -1.85 M39.03 47.01 C47.49 36.93, 57.03 26.02, 79.39 -0.77 M43.37 44.64 C56.81 32.43, 67.8 19.5, 84.98 0.84 M43.92 47.48 C59.82 28.11, 75.19 11.09, 84.2 -1.17 M49.4 48.33 C60.54 37.22, 68.7 25.52, 89.33 1.25 M49.58 47.06 C65.11 28.54, 81.67 9.07, 89.15 0.17 M56.02 46.39 C65.69 35.89, 72.29 23.46, 95.22 -1.59 M55.15 46.15 C69.82 30.69, 82.46 15.03, 96.2 0.63 M59.39 46.85 C73.67 28.59, 89.04 12.86, 99.87 -0.86 M60.23 47.75 C70.99 35.33, 80.28 24.18, 100.31 0.2 M66.12 44.99 C74.89 37.07, 83.19 22.56, 104.9 -1.46 M65.37 46.75 C79.5 30.95, 91.82 15.19, 106.93 -0.32 M72.46 47.94 C85.48 29.27, 101.5 9.75, 109.49 -1.35 M71.13 46.09 C84.7 29.33, 99.8 13.2, 112.02 -0.04 M76.01 45.17 C89.57 28.76, 105.19 11.98, 115.49 1.65 M76.62 46.01 C86.52 35.27, 97.26 22.98, 116.99 0.88 M82.88 45.13 C93.18 32.98, 101.14 22.55, 123.77 0.76 M80.5 46.26 C97 28.38, 111.92 12.3, 121.96 0.79 M87.39 45.76 C98.86 33.79, 108.78 21.38, 128.8 1.03 M87.55 47.32 C94.49 37.89, 103.58 27.73, 126.09 1 M91.26 47.1 C107.66 29.29, 124.31 11.1, 133.61 -1.37 M91.66 46.62 C100.23 36.66, 108.24 27.62, 133.43 -0.3 M99.3 45.8 C114.64 26.66, 128.06 11.05, 137.01 1.42 M98.39 45.75 C111.19 31.2, 123.3 15.08, 138 0.25 M102.57 47.71 C117.13 28.55, 131.48 14.4, 141.27 -0.47 M101.98 46.7 C112.17 37.06, 120.34 26.99, 142.28 0.35 M110.12 46.44 C117.37 34.7, 127.13 25.39, 147.3 1.93 M107.91 47.04 C122.75 29.96, 137.66 13.2, 148.25 0.28 M112.11 47.95 C126.43 28.45, 143.46 11.03, 154.36 -1.07 M113.92 46.19 C123.74 35.02, 134.79 21.92, 153.94 0.1 M119.57 45.03 C133.77 32.74, 145.72 13.53, 159.2 -1.15 M118.52 46.59 C130.08 33.94, 140.9 21.5, 158.45 -0.1 M123.53 45.98 C134.97 35.06, 142.65 23.65, 163.81 -1.56 M124.03 45.96 C134.68 35.42, 145.15 23, 164.45 -1.03 M130.08 45.8 C145.34 28.28, 159.9 8.44, 170.57 -0.39 M128.49 47.24 C137.71 35.3, 147.22 24.36, 169.26 0.08 M134.82 47.1 C151.93 29.84, 164.99 10.48, 173.92 -0.17 M133.92 47.07 C149.62 29.07, 164.29 10.47, 175.37 0.65 M139.36 46.88 C156.47 29.02, 173.12 8.98, 179.61 0.81 M139.67 47.24 C150.52 33.43, 160.89 20.57, 179.46 0.98 M144.32 45.8 C152.69 35.51, 163.21 26.82, 184.33 -0.99 M145.28 45.71 C154.62 34.3, 164.3 23.81, 184.91 -0.51 M150.53 46.82 C164.24 27.38, 179.65 12.52, 190.9 -1.8 M150.52 47.77 C165.06 28.92, 180.54 11.53, 190.87 0.92 M156.7 47.7 C171.72 26.08, 189.32 11.38, 195.99 0.06 M154.89 46.28 C171.99 28.48, 188.33 9.14, 196.79 -0.46 M160.67 47.59 C172.73 34.55, 181.74 22.81, 201.31 0.69 M159.72 46.92 C176.13 28.49, 192.92 11.76, 201.41 -0.6 M165 47.57 C180.37 33.39, 194.65 17.83, 205.25 1.22 M165.61 46.34 C182.16 27.58, 199.17 9.68, 207.35 -0.5 M170.23 45.27 C186.36 30.38, 203.6 12.11, 210.1 0.34 M170.54 47.46 C184.65 29.73, 199.23 13.28, 212.08 0.08 M176.56 47.36 C189.07 31.28, 201.53 20.68, 217.75 0.88 M177.36 45.62 C190.57 31.8, 201.15 19.15, 218.49 -0.25 M181.01 48.16 C195.7 30.8, 208.39 12.21, 220.85 -1.63 M181.83 45.84 C195.43 31.65, 210.8 14.91, 221.93 -0.19 M187.11 46.16 C200.85 29.43, 212.03 16.65, 226.51 -0.41 M188.15 47.02 C196.53 37.09, 206.7 26.76, 228.71 -0.65 M194.13 46.65 C201.55 37.21, 211.13 24.25, 231.49 -0.84 M193 47.17 C203.41 34.38, 213.08 23.96, 233.14 -0.41 M198.7 46.22 C208.73 31.36, 221.23 18.15, 237.22 -1.19 M199.06 45.61 C211.74 29.83, 226.64 15.38, 237.4 -0.24 M204.07 47.35 C214.42 36.85, 221.92 25.21, 244.29 0.23 M203.06 46.22 C217.42 30.76, 233.96 13.12, 243.9 -0.39 M209.73 46.95 C218.22 35.4, 228.72 23.34, 248.89 -0.12 M209.27 45.64 C221.14 32.24, 233.56 18.71, 248.53 0.87 M212.65 46.97 C223.87 36.95, 231.09 23.97, 255.87 -1.73 M213.58 46.47 C222.12 36.44, 230.77 27.35, 253.55 0.22 M220.94 46.9 C233.72 31.31, 247.62 14.88, 259.91 -1.42 M219.01 45.52 C227.83 36.37, 238.02 25.39, 259.65 0.51 M223.04 46.41 C237.86 32.14, 252.76 14.86, 263.19 -0.86 M223.72 47.03 C237.44 31.29, 251 16.38, 265.45 -1.04 M229.41 45.81 C243.3 26.67, 262.29 11.16, 268.64 0.08 M230.6 46.85 C240.91 33.1, 252.91 20.44, 269.55 0.41 M233.73 44.72 C245.37 34.38, 255.11 22.81, 277.55 -0.18 M235.22 45.72 C245.93 33.78, 256.27 23.37, 276.07 -0.49 M242.58 46.54 C252.69 30.93, 266.04 16.79, 278.82 1.7 M241.44 45.4 C255.24 30.36, 269.05 13.45, 280.63 -0.02 M244.59 45.1 C259.38 30.22, 272.13 13.29, 286.61 -1.52 M245.39 45.99 C260.58 29.13, 277.41 10.16, 285.94 0.76 M251.55 45.89 C265.84 28.44, 281.95 9.5, 289.53 -1.06 M250.36 46.83 C263.84 32.38, 275.82 17.78, 291.82 -0.69 M254.81 44.91 C270.44 29.64, 288.28 9.87, 296.35 0.43 M256.12 46 C268.78 32.2, 279.25 19.69, 296.69 -0.26 M259.77 45.52 C275.32 27.7, 292.3 12.02, 301.16 -0.57 M261.22 46.76 C276.88 29.63, 291.42 11.57, 301.66 0.14 M268.92 45.67 C278.82 32.49, 291.11 19.94, 309.1 0.13 M266.87 45.56 C282.45 28.19, 297.98 11.2, 308.01 0.67 M273.03 46.54 C285.29 29.8, 303.01 13.32, 313.49 0.98 M271.99 46.21 C286.93 29.66, 301.03 11.63, 313.26 0.9 M278.81 47.05 C285.05 39.03, 293.9 28.61, 317.56 -0.78 M277.7 47.15 C288.06 33.59, 299.91 20.63, 318.68 -0.06 M284.14 48.45 C295.49 33.67, 306.61 18.08, 323.61 1.53 M282.4 47.64 C291.42 36.49, 300.78 24.52, 323.31 -0.3 M289.71 44.88 C301.21 31.43, 314.87 16.81, 330.73 0.48 M288.24 46.95 C297.29 36.54, 307.21 24.9, 329.54 -0.91 M294.24 47.91 C305.81 33.81, 315.21 18.16, 331.96 1.19 M292.22 46.66 C307.28 31.2, 320.76 14.84, 333.08 -0.71 M298.17 45.14 C307.14 37.66, 316.89 26.02, 339.99 -2.16 M298.67 45.78 C309.95 33.63, 320.23 22.72, 338.52 -0.12 M302.83 48.73 C316.21 32.68, 328.21 19.05, 344.34 0.24 M304.32 47.06 C317.23 29.64, 332.57 14.38, 345.4 0.13 M310.13 45.97 C322.41 33.32, 332.19 19.44, 348.4 -0.85 M308.79 46.14 C321.15 33.11, 332.51 19.47, 348.99 -0.06 M313.75 47.88 C326.43 34.46, 336.06 24.89, 353.88 1.08 M313.66 45.82 C329.34 30.34, 343.64 12.62, 355.7 -0.68 M318.83 47.68 C330.95 33.56, 342.85 21.83, 359.31 1.15 M320.96 47.22 C335.96 28.38, 350.38 11.69, 359.33 0.85 M325.17 45.48 C339.84 30.16, 352.34 17.66, 367.05 -1.69 M324.25 46.06 C334.02 37.05, 341.72 26, 364.98 -0.36 M330.88 46.71 C337.95 35.53, 349.14 25.23, 370.47 0.01 M331.11 45.85 C339.72 34.47, 350.07 24.03, 370.05 -0.4 M335.61 46.81 C347.09 34.42, 356.91 18.6, 377.67 0.66 M336.19 46.1 C347.96 32.86, 361.46 17.89, 376.82 0.56 M340.22 45.68 C356.56 30.36, 368.77 12.91, 382.62 -1.71 M341.75 45.55 C349.9 36.38, 358.31 27.3, 381.4 0.61 M345.95 48.32 C359.78 32.2, 370.2 16.88, 388.91 1.02 M346.67 46.41 C362.05 28.79, 377.41 10.08, 386.37 -0.79 M350.13 47.35 C361.88 35.18, 370.69 21.02, 392.85 -0.3 M350.99 45.53 C360.02 35.78, 370.06 26.79, 391.7 -0.52 M357.38 47.6 C369.84 30.7, 384.15 14.2, 399.27 -1.57 M356.95 46.66 C366.91 35.3, 376.09 25.44, 397.37 -0.62 M362.61 45.4 C373.29 32.58, 385.67 16.73, 404.59 -0.87 M362.84 46.39 C371.05 35.89, 382.08 25.19, 402.35 -0.04 M369.48 45.39 C378.71 34.69, 387.38 23.56, 408.6 0.09 M367.36 46.65 C381.25 32.05, 394.76 17.04, 409.14 0.55 M370.92 47.39 C388.31 26.69, 403.35 11.09, 413.61 0.6 M372.86 46.16 C382.41 36.03, 391.3 25.21, 412.82 0.99 M378.13 47.61 C390.83 29.78, 403.22 15.61, 420.11 -0.62 M378.31 47.39 C392.32 31.59, 406.87 13.93, 419.56 -1.14 M381.75 45.32 C396.92 27.57, 415.61 11.18, 422.02 -0.7 M383.23 47.81 C400.12 29.31, 416.01 9.51, 423.66 -0.32 M389.57 47.32 C398.51 32.03, 409.72 21.24, 430.33 -2.19 M389.29 46.05 C401.97 31.95, 414.87 16.31, 430.1 0.13 M395.74 46.58 C405.44 33.01, 415.86 21.94, 436.29 -0.42 M394.34 47.2 C408.34 30.13, 422.32 13.65, 435.52 0.29 M398.4 46.74 C410.29 35.13, 420.78 25.84, 439.13 -0.96 M399.89 46.96 C411 32.23, 422.39 19.15, 440.8 -1.16 M404.92 48.72 C416.15 32.38, 426.95 21.18, 445.22 0.93 M405.19 46.9 C417.61 31.84, 429.3 18.07, 446.09 -0.72 M409.54 47.24 C423 32.72, 433.84 20.43, 451.75 -1.1 M410.74 46.64 C424.8 28.82, 439.89 11.74, 451.31 -0.84 M414.62 45.43 C428.8 31.65, 438.32 19.98, 453.96 0.02 M414.33 47.12 C429.19 30.48, 444.8 12.65, 455.18 0.27 M420.26 47.35 C436.05 28.97, 452.22 11.51, 460.76 -0.61 M420.57 46.77 C434.51 29.83, 451.53 11.45, 461.81 -0.09 M425.55 48.59 C439.24 33.74, 448.79 21.03, 466 0.66 M424.92 46.77 C438.55 33.73, 448.96 18.3, 465.65 -0.94 M430.19 44.77 C443.01 35.97, 452.3 24.69, 471.41 -0.61 M431.2 47.21 C445.67 29.19, 459.98 13.46, 471.43 0.36 M435.74 46.19 C445.98 37.1, 453.26 24.46, 477.17 -0.19 M435.66 46.39 C447.75 34.04, 456.85 22.66, 476.44 0.6 M443.27 46.33 C452.11 35.1, 461.41 21.9, 482.28 1.7 M442.49 46.97 C451.48 35.9, 460.52 26.14, 481.85 0.17 M446.57 48.43 C461.63 28.49, 478.18 12.04, 489.66 1.61 M447.85 47.24 C458.44 33.72, 471.29 19.32, 487.58 0.03 M453.82 46.04 C464.05 33.44, 477.85 19.66, 491.31 -0.48 M453.41 47.27 C461.03 36.4, 467.68 28.02, 492.35 0.95 M456.78 45.62 C466.33 34.97, 477.59 22.04, 495.36 2.35 M458.38 46.22 C472.46 28.94, 486.42 13.54, 496.55 2.69 M464.49 47.06 C468.34 38.71, 474.72 29.55, 497.22 7.76 M463.01 46.47 C472.95 33.67, 483.74 21.5, 496.22 8.51 M468.43 46.26 C474.73 36.78, 485.14 28.07, 493.9 16.5 M468.68 46.92 C479.39 34.44, 489.11 22.53, 495.27 15.08 M472.25 47.69 C480.24 40.1, 487.35 33.28, 495.24 20.67 M473.39 47.12 C480.26 37.09, 488.9 28.94, 495.5 21.52 M476.93 46.97 C482.65 40.18, 489.37 38.28, 494.35 28.61 M479.8 46.58 C484.93 41.06, 489.88 34.58, 496.88 27.81 M485.61 48.04 C487.67 40.9, 491.6 37.17, 494.74 32.27 M484.08 47.61 C488.79 41.9, 492.59 36.11, 495.5 32.87 M489.28 46.57 C491.24 44.17, 493.14 43, 496.17 39.23 M489.43 46.86 C491.49 44.53, 493.26 42.06, 495.9 38.86" stroke="#fa5252" stroke-width="0.5" fill="none"></path><path d="M-0.09 -0.61 C195.72 -0.12, 391.5 0.54, 492.78 -0.76 M0.31 -0.09 C127.15 0.84, 253.1 0.62, 492.95 0.2 M492.39 0.81 C492.18 9.63, 494.36 21.27, 494.16 43.07 M493.63 0.21 C493.4 11.23, 493.81 21.14, 493.86 44.5 M492.6 44.18 C342.17 44.68, 191.23 45.75, 0.55 44.54 M493.36 45.03 C376.42 46.5, 260.24 46.31, 0.35 44.81 M-0.63 46.57 C-1.41 28.23, -1.78 12.52, -1.04 1.58 M0.45 44.72 C-0.18 27.67, 0.48 9.15, -0.47 0.61" stroke="#c92a2a" stroke-width="1" fill="none"></path></g><g transform="translate(24 20) rotate(0 23 12.5)"><text x="0" y="18" font-family="Virgil, Segoe UI Emoji" font-size="20px" fill="#c92a2a" text-anchor="start" style="white-space: pre;" direction="ltr">Logo</text></g><g transform="translate(210 183) rotate(0 29 11.5)"><text x="0" y="18" font-family="Helvetica, Segoe UI Emoji" font-size="20px" fill="#000000" text-anchor="start" style="white-space: pre;" direction="ltr">Footer</text></g><g stroke-linecap="round" transform="translate(10 53) rotate(0 246 58)"><path d="M0 0 C0 0, 0 0, 0 0 M0 0 C0 0, 0 0, 0 0 M0.18 6.89 C1 4.78, 3.74 1.84, 4.95 -0.1 M0.09 6.78 C0.82 5.13, 2.3 3.92, 5.11 0.26 M-0.63 12.27 C5.09 8.76, 6.56 2.78, 9.61 -0.57 M-0.12 12.01 C3.49 7.63, 7.96 2.89, 11.12 -0.77 M-1.5 16.56 C7.13 12.43, 10.78 3.37, 16.06 -0.94 M0.63 17.8 C5.6 10.29, 12.52 4.59, 15.13 -0.15 M2.04 23.21 C6.99 19.82, 11.48 14.24, 21.78 -1.28 M0.7 24.44 C7.37 16.81, 13.82 9.43, 22.19 -0.6 M1.19 28.51 C7.13 19.63, 17.39 11, 27.33 -1.09 M0.39 30.95 C7.18 22.29, 15.92 11.56, 26.98 -0.11 M-1.46 37.31 C7.06 30.54, 15.04 22.83, 31.35 1.18 M0.7 37.62 C8.28 26.96, 16.89 17.22, 32.84 -1.01 M-1.69 43.9 C8.91 33.74, 16.76 25.14, 35.39 -1.37 M-0.42 42.52 C10.77 30.28, 21.33 19.25, 35.99 1.13 M-1.17 50.85 C13.89 31.32, 28.16 13.17, 41.68 0.39 M-0.79 48.97 C11.47 37.29, 23.29 23.32, 43 -0.34 M1.59 54.28 C13.24 38.98, 25.31 27.54, 46.27 -1.75 M0.93 54.45 C11.17 42.22, 22.89 29.49, 46.88 0.13 M0.4 62.48 C21.1 39.48, 37.77 17.02, 52.74 -0.82 M-0.78 61.88 C12.12 47.06, 21.79 34.73, 52.55 0.45 M-1.54 69.14 C21.33 40.65, 41.68 16.44, 57.36 -0.06 M0.61 66.57 C14.9 49.71, 30.1 33, 58.94 0.14 M0.77 72.24 C25.07 44.4, 48.69 16.95, 62.83 -0.44 M0.97 73.65 C24.1 43.29, 50.77 14.41, 64.45 0.54 M0.66 78.83 C20.73 54.69, 41.64 31.94, 67.39 2.02 M-0.17 78.63 C27.46 49.73, 53.35 18.15, 69.04 0.06 M-1.21 84.33 C15.3 66.1, 31.57 47.88, 74.59 0.68 M0.27 85.26 C26.79 55.5, 53.01 25.32, 73.74 0.32 M-1.68 93.14 C32.85 54.73, 63.07 18.38, 78.42 0.97 M-0.08 91.83 C22.1 65.61, 43.35 41.45, 78.65 -0.52 M-0.01 97.88 C29.43 64.36, 59.07 27.92, 85.02 0.85 M-1.15 97.09 C16.86 78.44, 35.11 58.74, 84.54 0.33 M0.54 104.26 C20.54 82.44, 37.15 60.19, 89.86 1.45 M-0.08 102.76 C22.15 77.13, 45.64 49.68, 90.8 -0.36 M1.22 109.89 C28.42 76.38, 57.19 40.61, 95.45 -0.45 M0.01 108.97 C32.55 73.57, 62.61 38.81, 95.04 0.28 M0.79 113.54 C32.3 77.66, 64.47 44.42, 100.48 -1.76 M0.97 115.21 C32.97 79.11, 65.97 42.03, 101.08 0.48 M3.35 118.76 C30.29 87.22, 59.48 56.05, 105.57 -0.6 M2.24 118.61 C31.59 86.63, 59.41 56, 106.51 0.05 M6.75 120.41 C41.62 80.76, 71.65 46.22, 110.38 -1.69 M9.15 118.07 C45.15 77.07, 81.82 33.84, 110.7 -0.4 M11.83 119.29 C43.06 84.82, 73.15 52.33, 114.73 0.93 M12.93 119.63 C37.79 89.81, 63.16 60.82, 115.66 -0.53 M17.31 116.58 C51.97 78.22, 86.61 39.37, 123 -1.25 M19.51 118.5 C47.45 86.09, 76.05 52.19, 121.41 -0.75 M22.38 119.52 C46.98 90.4, 70.67 62.21, 126.62 1.58 M22.91 119.42 C48.45 91.18, 71.41 63.8, 126.23 0.25 M28.35 117.88 C53.13 91.38, 73.89 63.38, 131.12 0.84 M28.79 118.81 C63.18 81.75, 94.28 43.6, 132.56 -0.61 M35.89 118.59 C67.44 81.25, 99.46 40.4, 139.29 2.19 M34.46 118 C62.77 84, 92.95 50.78, 138.06 -0.46 M38.69 118.26 C76.05 78.55, 112.86 36.62, 142.89 0 M40.43 117.46 C69.79 82.01, 101.45 45.78, 144.08 0.62 M44.64 117.79 C76.59 82.88, 110.42 47.12, 149.8 2.01 M44.43 118.02 C65.69 92.23, 88.01 66.14, 148.74 -0.08 M49.52 118.87 C84.91 75.92, 120.61 38.27, 155.77 -0.19 M50.95 119.08 C71.32 93.84, 92.71 68.11, 153.45 -0.76 M54.21 118.59 C87.67 82.65, 120.3 42.96, 159.55 1.46 M55.27 117.85 C87.26 81.31, 119.55 44.91, 157.94 1.15 M62.36 117.98 C100.66 72.88, 141.52 25.61, 162.59 -2 M60.97 117.5 C84.37 91.52, 105.61 67.96, 164.77 0.19 M65.56 120.59 C90.56 90.34, 115.66 60.68, 168.27 0.08 M65.99 118.49 C89.17 94.66, 110.47 69.55, 170.4 1.13 M73.07 117.03 C109.97 77.3, 143.39 37.95, 173.52 0.46 M72.15 118.68 C95.1 93.85, 117.64 67.32, 175.69 0.11 M76.98 119.55 C108.24 83.9, 136.9 47.77, 180.05 -1.39 M77.19 118.64 C104.77 87.6, 129.59 57.91, 180.94 0.95 M81.87 118.61 C107.09 93.44, 130.92 67.29, 186.05 -0.75 M82.27 117.79 C115.69 78.79, 148.17 42.06, 186.44 0.3 M86.09 117.41 C120.64 83.25, 149.92 47.13, 189.33 0.92 M88.03 117.67 C119.68 81.91, 150.9 46.06, 191.46 -0.12 M95.32 116.47 C119.4 87.1, 149.43 55.63, 195.04 -1.44 M94.14 118.14 C132.24 75.06, 170.87 30.81, 196.83 -0.28 M99.87 120.23 C120.91 94.12, 141.99 69.72, 202.86 0.04 M99.27 118.6 C132.13 80.28, 165.42 43.49, 201.94 0.35 M104.3 117.53 C135.19 79.54, 168.64 43.82, 206.68 0.75 M104.69 118.22 C124.8 94, 146.64 69.31, 207.26 0.03 M108.64 120.25 C143.92 77.55, 177.1 36.48, 213.78 0.16 M108.24 119.15 C133.05 92.25, 154.99 64.99, 211.42 0.97 M113.41 120.59 C138.03 87.96, 164.64 60.59, 216.52 0.34 M113.26 119.48 C154.7 71.76, 195.26 25.35, 217.7 0.53 M120.07 117.87 C156.26 79.17, 188.65 37.95, 223.54 -1.39 M119.84 118.7 C140.62 92.79, 161.71 69.57, 223.05 -0.5 M125.54 119.38 C153.95 82.24, 185.43 48.52, 227.43 -1.99 M125.22 118.22 C157.48 80.06, 189.6 43.82, 228.68 -0.77 M129.16 119.63 C156.61 85.76, 181.12 56.51, 231.94 -0.08 M129.56 119.28 C152.19 93.47, 174.4 68.95, 233.03 -0.09 M135.96 117.01 C170.52 75.12, 206.44 36.33, 238.99 -0.67 M135.07 119.22 C162.23 86.63, 190.74 54.68, 237.69 0.53 M140.27 120.24 C167.23 84.07, 194.73 52.71, 243.14 1.72 M140.46 118.64 C167.91 86.79, 195.08 56.31, 243.66 -0.69 M144.95 117.02 C175.49 86.06, 200.5 54.89, 248.07 1.79 M146.04 119.67 C184.08 72.61, 222.7 29.2, 248.73 1.25 M153.09 116.54 C186.46 77.06, 218.93 37.14, 255.62 0.83 M152.18 119.15 C186.49 76.26, 222.43 36.22, 254.3 -1 M155.13 118.1 C194.45 76.96, 229.79 34.96, 258.94 1.27 M156.42 118.91 C184.23 88.22, 210.74 56.1, 259.44 0.15 M160.65 117.57 C198.75 79.29, 232.81 37.84, 264.22 -0.78 M161.94 118.89 C193.91 82.08, 226.27 44.21, 264.4 -0.57 M165.46 120.09 C200.75 80.65, 231.32 45.1, 271.85 -0.92 M166.61 119.47 C207.1 73.47, 247.28 27.3, 270.67 -0.08 M171.34 118.5 C212.19 76.18, 249.49 32.13, 274.12 -1.98 M173.54 118.6 C192.19 93.53, 215.14 69.54, 276.48 -0.75 M177.23 117.99 C200.73 91.97, 223.23 68.65, 280.4 0.66 M178.07 118.06 C212.03 80, 246.17 41.48, 280.85 0.89 M182.89 118.64 C202.88 96.41, 225.03 70.22, 286.84 -0.49 M184.35 118.68 C213.84 83.42, 243.11 47.86, 287.14 0.27 M188.1 119.97 C229.07 71.94, 269.25 27.38, 289.54 1.63 M188.33 118.55 C213.71 89.37, 239.69 60.61, 291.01 0.08 M192.36 119.49 C219.63 90.23, 247.77 58.83, 298.25 1.13 M194.32 118.22 C217.02 88.42, 242.2 62.18, 296.06 0.45 M198.06 117.33 C235.3 77.75, 272.53 34.23, 301.56 1.76 M198.01 118.97 C226.12 87.91, 252.41 55.71, 301.75 0.19 M206.17 118.69 C226.95 90.42, 251.49 64.26, 308.56 1.47 M204.99 117.97 C242.3 75.25, 281.09 32.95, 307 -1.03 M211.45 118.54 C233.01 93.49, 254.73 65.94, 314.08 -1.03 M209.81 118.54 C239.67 84.71, 267.97 50.76, 312.22 0.58 M214.08 120.04 C239.8 91.12, 263.4 64.84, 316.33 -1.72 M214.47 117.35 C252.8 74.4, 289.3 31.94, 318.8 -0.87 M218.94 119.22 C253.67 76.73, 290.93 37.14, 322.09 -0.67 M219.5 118.65 C259.16 75.79, 295.99 33.28, 323.18 0.29 M226.53 120.24 C255.86 84.39, 289.14 46.51, 328.44 -1.53 M225.79 118.22 C265.78 70.68, 306.4 24.03, 328.37 -0.55 M231.55 120.17 C254.06 92.12, 279.81 64.35, 331.91 -0.92 M230.93 117.86 C265.49 77.96, 300.84 37.7, 333.97 1.01 M235.28 119.89 C265.17 87.13, 291.3 54.55, 338.15 0.1 M236.52 118.84 C276.19 74.13, 316.35 28.35, 339.71 0.57 M242.66 117.31 C270.78 84.47, 297.19 53.64, 343.19 -1.39 M241.04 118.89 C284.01 71.43, 323.54 24.81, 345.48 0.14 M247.46 118.01 C276.62 86.14, 304.51 54.07, 350.38 -0.86 M245.86 119.41 C278.67 81.19, 311.81 44.34, 350.22 1.11 M253.98 119.75 C289.36 72.25, 331.28 24.08, 354.95 0.47 M252.82 117.66 C284.83 80.76, 317.91 43.6, 355.2 -0.29 M258.21 119.04 C282.33 89.29, 308.1 56.76, 358.38 0.47 M256.23 118.03 C294.53 76.51, 331.27 33.77, 360.37 -0.45 M261.55 119.72 C299.97 72.82, 337.3 29.53, 367.53 -0.64 M262.38 118.22 C284.52 93.87, 306.41 69.33, 366.2 -0.54 M267.99 119.54 C297.51 87.09, 324.08 51.74, 369.76 0.36 M267.62 118.49 C304.3 77.88, 338.91 38.36, 370.73 -0.16 M273.78 118.65 C311.49 76.22, 347.03 33.08, 376.64 0.15 M273.86 117.83 C314.19 72.11, 353.93 25.46, 376.11 -0.22 M276.63 118.25 C318.2 72.34, 361.27 24.28, 383.13 1.51 M278.61 119.25 C304.74 90.01, 330.16 59.15, 381.6 -0.66 M285.41 117.08 C322.96 77.34, 360.75 30.57, 387.3 -0.16 M284.52 117.92 C315.46 82.27, 346.41 45.99, 386.15 0.73 M289.3 118.06 C329.96 73.05, 372.93 24.52, 393.47 -0.24 M289.37 118.44 C325.91 76.9, 360.7 35.32, 391.38 0.56 M295.52 116.75 C330.95 75.22, 368.94 33.96, 395.91 1.61 M293.67 119.05 C315.38 93.34, 336.9 68.79, 398.13 -0.95 M298.49 120.02 C323.59 90.22, 347.96 61.92, 402.06 2.11 M300.63 118.85 C327.09 86.66, 353.8 55.63, 403.51 0.22 M305.54 118.52 C339.61 80.15, 376.62 38.6, 408.18 0.8 M305.72 118 C332.82 85.21, 363.27 52.95, 407.41 -0.85 M310.07 117.33 C333.25 91.07, 359.31 66.71, 414.56 0.71 M310.69 118.97 C341.63 83.25, 373.02 46.13, 413.54 0.18 M317.25 116.44 C346.52 82.44, 378.87 47.9, 417.2 -1.13 M315.13 118.71 C346.84 82.01, 379.6 45.66, 417.95 0.11 M321.22 117.36 C346.13 90.6, 369.58 62.39, 422.97 -1.11 M320.45 117.93 C352.75 82.96, 384.68 44.99, 424.08 0.48 M326.76 119.67 C355.37 85.59, 383.86 50.56, 429.36 1.49 M327.47 117.27 C367.53 71.35, 407.2 24.5, 429.28 0.69 M330.48 119.61 C362.57 83.82, 390.61 50.65, 435.62 1.11 M332.39 118.55 C356.68 93.02, 380.56 63.89, 433.84 0.34 M338.53 118.58 C363.23 85.38, 389.78 55.58, 438.44 0.43 M336.37 118.96 C367.52 83.2, 395.99 49.27, 439.51 0.32 M343.75 117.77 C383.5 74.38, 420.67 27.92, 443.18 -1.01 M341.54 118.32 C379.15 76.23, 415.24 33, 444.58 -0.86 M346.72 119.41 C379.99 81.07, 410.81 43.38, 451.52 -0.34 M347.88 117.99 C367.82 93.87, 389.17 69.17, 450.33 0.08 M352.23 117.65 C376.33 91, 403.36 61.33, 456.68 1.31 M352.52 118.4 C378.15 89.29, 403.6 57.78, 456.15 -0.55 M355.77 119.32 C378.47 92.38, 403.43 63.27, 463.06 1.29 M358.1 119.47 C380.54 92.52, 403.31 66.87, 462.01 -0.25 M362.51 119.25 C404.94 72.38, 442.99 23.26, 465.48 0.03 M362.56 118.62 C389.86 88.86, 415.2 59.25, 465.5 -0.02 M366.53 116.87 C397.4 86.32, 426.82 51.88, 472.19 0.33 M368.25 118.95 C399.87 83.02, 432.28 45.81, 471.72 -0.47 M374.5 118.71 C401.25 85.23, 428.43 54.5, 475.31 0.22 M374.42 118.48 C408.42 78.19, 444.81 38.91, 477.61 0.66 M380.84 119.02 C410.89 86.56, 439.09 49.84, 483.34 -0.29 M378.27 118.38 C407.03 86.87, 433.95 54.82, 481.22 0.01 M383.44 118.31 C415.22 84.32, 447.34 47.52, 486.2 -1.86 M385.47 118.16 C415.9 82.89, 446.64 46.74, 488.59 -0.46 M390.86 119.91 C426.52 78.7, 462.96 36.57, 492.35 0.75 M389.18 117.91 C410.56 93.47, 431.26 70.07, 491.83 -0.26 M393.96 116.53 C418.92 92.73, 441.8 65.75, 492.66 5.99 M394.63 117.51 C430.61 78.9, 466.61 36.66, 492.69 6.67 M401.13 118.82 C428.17 87.5, 454.69 57.65, 492.54 14.26 M400.1 118.85 C423.63 92.08, 446.53 64.96, 493.65 13.26 M405.98 117.96 C427.05 93.13, 448.99 65.19, 490.73 18.82 M405.44 119.04 C433.11 86.64, 461.07 53.09, 492.46 17.95 M410.51 118.19 C429.92 98.52, 443.72 79.29, 490.9 23.81 M411.18 118.67 C431.98 94.65, 452.08 69.72, 492.66 25.36 M416.8 119.37 C432.86 100.13, 450.31 80.22, 492.11 29.07 M416.99 118.95 C435.52 95.74, 456.59 74.63, 491.83 30.7 M422.21 117.6 C447.97 87.36, 475.09 59.68, 493.27 36.95 M420.71 118.03 C441.82 95.42, 461.87 72.79, 492.92 37.34 M427.05 119.69 C452.37 90.32, 477.97 62.51, 494.2 41.61 M426.93 118.1 C452.39 89.51, 476.4 60.3, 493.17 43.67 M433.79 119.81 C449.46 97.01, 465.63 79.9, 492.82 47.62 M432 117.75 C449.28 97.18, 469.06 77.09, 492.09 48.42 M438.71 117.99 C455.12 97.97, 472.91 77.64, 494.14 55.23 M438.54 119.03 C449.87 104.54, 462.45 90.89, 492.33 55.55 M443.14 116.73 C454.99 107.8, 465.05 94.24, 490.77 63.2 M442.48 117.82 C459.51 100.16, 475.2 81.38, 493.04 61.76 M449.09 119.51 C459.73 106.23, 471.56 94.88, 493.35 69.62 M447.62 118.94 C459.16 106.53, 467.71 96.59, 492.16 66.94 M454.5 119.42 C465.63 103.81, 479.49 91.29, 493.64 75.19 M452.64 118.42 C464.34 107.1, 474.8 95.04, 492.26 74.16 M460.21 118.4 C467.3 109.68, 474.16 99.34, 491.64 79.86 M458.95 119.47 C468.7 104.97, 481.78 91.79, 491.64 79.87 M464.47 120.09 C470.73 111.23, 478.02 101.9, 490.66 86.03 M465.04 118.89 C471.12 109.98, 479.07 102.14, 492.14 85.88 M467.38 120.68 C473.86 111.32, 480.17 105.56, 491.8 91.46 M469.8 118.65 C475.74 111.72, 481.39 105.32, 493.49 91.79 M475.97 118.13 C479.98 110.62, 488.64 104.83, 494.38 100.03 M475.34 118.73 C480.42 111.39, 487.3 105.45, 492.6 98.55 M481.3 118.83 C482.91 114.96, 490.04 106.11, 492.99 103.07 M479.09 118.46 C485.11 113.1, 490.02 108.09, 492.48 103.32 M484.74 118.25 C488.07 114.35, 490.17 111.83, 491.53 110.03 M485.3 118.56 C487.9 115.59, 491.08 112.45, 492.36 110.49" stroke="#4c6ef5" stroke-width="0.5" fill="none"></path><path d="M-0.55 0.62 C115.38 -2.2, 229.94 -1.41, 491.67 0.73 M-0.04 -0.37 C174.76 1.15, 350.22 1.1, 491.99 -0.28 M491.22 -1.31 C491.7 27.96, 493.21 54.05, 491.01 116.52 M491.16 0.04 C492.82 28.49, 493.91 56.65, 491.26 115.93 M491.98 115.93 C308.79 116.01, 124.25 115.06, 0.75 116.26 M491.61 115.84 C390.37 115.95, 289.2 115.83, 0.1 116.18 M-0.47 116.12 C-0.72 88.27, 0.88 56.32, -1.91 1.31 M-0.81 116.64 C0.38 73.8, -0.64 31.41, 0.55 0.08" stroke="#364fc7" stroke-width="1" fill="none"></path></g><g stroke-linecap="round"><g transform="translate(145.47659347679462 291.43889986909926) rotate(0 9.22949390677735 -26.697216707468044)"><path d="M0 0 C3.08 -8.9, 15.38 -44.5, 18.46 -53.39 M0 0 C3.08 -8.9, 15.38 -44.5, 18.46 -53.39" stroke="#364fc7" stroke-width="1" fill="none"></path></g><g transform="translate(145.47659347679462 291.43889986909926) rotate(0 9.22949390677735 -26.697216707468044)"><path d="M18.92 -25.15 C18.78 -33.87, 18.63 -42.59, 18.46 -53.39 M18.92 -25.15 C18.77 -34.4, 18.62 -43.64, 18.46 -53.39" stroke="#364fc7" stroke-width="1" fill="none"></path></g><g transform="translate(145.47659347679462 291.43889986909926) rotate(0 9.22949390677735 -26.697216707468044)"><path d="M0.66 -31.46 C6.15 -38.23, 11.65 -45, 18.46 -53.39 M0.66 -31.46 C6.48 -38.64, 12.31 -45.82, 18.46 -53.39" stroke="#364fc7" stroke-width="1" fill="none"></path></g></g><g transform="translate(122 297) rotate(0 29 11.5)"><text x="0" y="18" font-family="Helvetica, Segoe UI Emoji" font-size="20px" fill="#364fc7" text-anchor="start" style="white-space: pre;" direction="ltr">What?</text></g><g transform="translate(211 104) rotate(0 35 11.5)"><text x="0" y="18" font-family="Helvetica, Segoe UI Emoji" font-size="20px" fill="#000000" text-anchor="start" style="white-space: pre;" direction="ltr">Content</text></g></svg>